<svg width="42" height="42" viewBox="0 0 42 42" fill="none" xmlns="http://www.w3.org/2000/svg">
<path fill-rule="evenodd" clip-rule="evenodd" d="M17.3927 5.6875H24.6072C27.8316 5.68747 30.385 5.68745 32.3831 5.95543C34.439 6.23115 36.1028 6.81197 37.4151 8.12102C39.2168 9.91826 39.6547 12.3932 39.7927 15.6764L39.7945 15.7187C39.8066 16.0055 39.819 16.2982 39.8081 16.5448C39.7966 16.8071 39.756 17.1859 39.5466 17.5601C39.4016 17.8191 39.2075 17.9981 39.0782 18.1052C38.9379 18.2214 38.7822 18.3267 38.6337 18.4204C38.3471 18.6011 37.9596 18.8175 37.5053 19.0712L37.472 19.0898C36.797 19.4668 36.3473 20.1827 36.3473 21C36.3473 21.8173 36.797 22.5332 37.472 22.9102L37.5055 22.9289C37.9597 23.1825 38.3472 23.3989 38.6337 23.5796C38.7822 23.6733 38.9379 23.7786 39.0782 23.8948C39.2075 24.0019 39.4016 24.1809 39.5466 24.4399C39.756 24.814 39.7966 25.1929 39.8081 25.4552C39.819 25.7018 39.8066 25.9945 39.7945 26.2813L39.7927 26.3236C39.6547 29.6068 39.2168 32.0817 37.4151 33.879C36.1028 35.188 34.439 35.7689 32.3831 36.0446C30.385 36.3125 27.8316 36.3125 24.6072 36.3125H17.3927C14.1682 36.3125 11.6148 36.3125 9.61669 36.0446C7.5608 35.7689 5.89706 35.188 4.58475 33.879C2.78303 32.0817 2.34511 29.6068 2.20708 26.3236L2.20529 26.2812C2.19319 25.9945 2.18083 25.7018 2.19167 25.4552C2.20321 25.1929 2.24377 24.814 2.45324 24.4399C2.5982 24.1809 2.79231 24.0019 2.92165 23.8948C3.0619 23.7786 3.21767 23.6733 3.36617 23.5796C3.65269 23.3989 4.04021 23.1825 4.49446 22.9288L4.52787 22.9102C5.20285 22.5332 5.65253 21.8173 5.65253 21C5.65253 20.1827 5.20285 19.4668 4.52787 19.0898L4.49443 19.0712C4.04018 18.8175 3.65268 18.6011 3.36616 18.4204C3.21766 18.3267 3.0619 18.2214 2.92165 18.1052C2.7923 17.9981 2.59819 17.8191 2.45324 17.5601C2.24377 17.186 2.20321 16.8071 2.19167 16.5448C2.18083 16.2982 2.19319 16.0055 2.20529 15.7188C2.20589 15.7046 2.20648 15.6905 2.20708 15.6764C2.34511 12.3932 2.78303 9.91826 4.58475 8.12102C5.89706 6.81197 7.5608 6.23115 9.61669 5.95543C11.6148 5.68745 14.1682 5.68747 17.3927 5.6875ZM37.1819 25.5224C37.1819 25.5224 37.1823 25.5241 37.1827 25.5282L37.1819 25.5224ZM37.1861 25.7705C37.1859 25.7819 37.1856 25.7939 37.1853 25.8062C37.1824 25.9182 37.177 26.0483 37.1701 26.2133C37.0335 29.4614 36.5899 30.9945 35.5612 32.0205C34.8182 32.7617 33.8002 33.206 32.0342 33.4429C30.2308 33.6847 27.8537 33.6875 24.5086 33.6875H17.4912C14.1461 33.6875 11.769 33.6847 9.96561 33.4429C8.19961 33.206 7.18164 32.7617 6.43859 32.0205C5.40997 30.9945 4.96632 29.4614 4.82976 26.2133C4.82282 26.0483 4.81739 25.9182 4.8145 25.8062C4.81419 25.7939 4.81391 25.7819 4.81367 25.7705C5.03183 25.6358 5.34515 25.4603 5.80773 25.202C7.27746 24.3813 8.27753 22.8088 8.27753 21C8.27753 19.1912 7.27746 17.6187 5.80773 16.798C5.34515 16.5397 5.03182 16.3642 4.81366 16.2295C4.81391 16.2181 4.81419 16.2061 4.8145 16.1938C4.81739 16.0818 4.82282 15.9517 4.82976 15.7867C4.96632 12.5386 5.40997 11.0056 6.43859 9.97949C7.18163 9.23829 8.19961 8.79398 9.96561 8.55714C11.769 8.31527 14.1461 8.3125 17.4912 8.3125H24.5086C27.8537 8.3125 30.2308 8.31527 32.0342 8.55714C33.8002 8.79398 34.8182 9.23829 35.5612 9.97949C36.5899 11.0056 37.0335 12.5386 37.1701 15.7867C37.177 15.9517 37.1824 16.0818 37.1853 16.1938C37.1856 16.2061 37.1859 16.2181 37.1862 16.2295C36.968 16.3642 36.6547 16.5397 36.1921 16.798C34.7224 17.6187 33.7223 19.1912 33.7223 21C33.7223 22.8088 34.7224 24.3813 36.1921 25.202C36.6547 25.4604 36.968 25.6358 37.1861 25.7705ZM37.4036 16.0838L37.4016 16.0854C37.409 16.0786 37.4104 16.0781 37.4036 16.0838ZM37.1819 16.4776C37.1819 16.4776 37.1821 16.4756 37.1827 16.4718L37.1819 16.4776ZM4.59625 16.0838C4.58941 16.0781 4.59084 16.0786 4.59823 16.0854L4.59625 16.0838ZM4.81711 16.4718C4.81773 16.4756 4.81791 16.4776 4.81791 16.4776L4.81711 16.4718ZM4.81791 25.5224C4.81791 25.5224 4.81773 25.5244 4.81711 25.5282L4.81791 25.5224ZM4.59824 25.9146C4.59084 25.9214 4.5894 25.9219 4.59625 25.9162L4.59824 25.9146ZM37.4016 25.9146L37.4036 25.9162C37.4104 25.9219 37.409 25.9214 37.4016 25.9146ZM27.178 14.8219C27.6905 15.3345 27.6905 16.1655 27.178 16.6781L16.678 27.1781C16.1654 27.6906 15.3344 27.6906 14.8218 27.1781C14.3093 26.6655 14.3093 25.8345 14.8218 25.3219L25.3218 14.8219C25.8344 14.3094 26.6654 14.3094 27.178 14.8219Z" fill="#040085"/>
<path d="M27.1249 25.375C27.1249 26.3415 26.3414 27.125 25.3749 27.125C24.4084 27.125 23.6249 26.3415 23.6249 25.375C23.6249 24.4085 24.4084 23.625 25.3749 23.625C26.3414 23.625 27.1249 24.4085 27.1249 25.375Z" fill="#040085"/>
<path d="M18.3749 16.625C18.3749 17.5915 17.5914 18.375 16.6249 18.375C15.6584 18.375 14.8749 17.5915 14.8749 16.625C14.8749 15.6585 15.6584 14.875 16.6249 14.875C17.5914 14.875 18.3749 15.6585 18.3749 16.625Z" fill="#040085"/>
</svg>
