<svg width="42" height="42" viewBox="0 0 42 42" fill="none" xmlns="http://www.w3.org/2000/svg">
<path fill-rule="evenodd" clip-rule="evenodd" d="M19.6875 3.5C19.6875 2.77513 20.2751 2.1875 21 2.1875C31.3899 2.1875 39.8125 10.6101 39.8125 21C39.8125 31.3899 31.3899 39.8125 21 39.8125C10.6101 39.8125 2.1875 31.3899 2.1875 21C2.1875 20.2751 2.77513 19.6875 3.5 19.6875C4.22487 19.6875 4.8125 20.2751 4.8125 21C4.8125 29.9401 12.0599 37.1875 21 37.1875C29.9401 37.1875 37.1875 29.9401 37.1875 21C37.1875 12.0599 29.9401 4.8125 21 4.8125C20.2751 4.8125 19.6875 4.22487 19.6875 3.5ZM21 14.4375C21.7249 14.4375 22.3125 15.0251 22.3125 15.75V21.4375H28C28.7249 21.4375 29.3125 22.0251 29.3125 22.75C29.3125 23.4749 28.7249 24.0625 28 24.0625H21C20.2751 24.0625 19.6875 23.4749 19.6875 22.75V15.75C19.6875 15.0251 20.2751 14.4375 21 14.4375Z" fill="#040085"/>
<path fill-rule="evenodd" clip-rule="evenodd" d="M15.9243 4.19569C16.1853 4.87193 15.8487 5.63175 15.1725 5.89279C14.925 5.98834 14.6804 6.0898 14.4389 6.197C13.7764 6.49112 13.0009 6.19247 12.7067 5.52995C12.4126 4.86743 12.7113 4.09192 13.3738 3.7978C13.6547 3.6731 13.9392 3.55507 14.2272 3.44392C14.9034 3.18287 15.6632 3.51946 15.9243 4.19569ZM9.88348 7.42046C10.3834 7.94538 10.3631 8.77616 9.83821 9.27607C9.64629 9.45885 9.45884 9.64629 9.27606 9.83821C8.77616 10.3631 7.94537 10.3834 7.42046 9.88348C6.89555 9.38357 6.87528 8.55279 7.37519 8.02788C7.58741 7.80504 7.80504 7.58741 8.02788 7.37519C8.55279 6.87528 9.38357 6.89555 9.88348 7.42046ZM5.52995 12.7067C6.19247 13.0009 6.49112 13.7764 6.197 14.4389C6.0898 14.6804 5.98834 14.925 5.89279 15.1725C5.63175 15.8487 4.87193 16.1853 4.19569 15.9243C3.51946 15.6632 3.18287 14.9034 3.44391 14.2272C3.55507 13.9392 3.6731 13.6547 3.7978 13.3738C4.09192 12.7113 4.86743 12.4126 5.52995 12.7067Z" fill="#040085"/>
</svg>
