<svg width="42" height="42" viewBox="0 0 42 42" fill="none" xmlns="http://www.w3.org/2000/svg">
<path fill-rule="evenodd" clip-rule="evenodd" d="M15.75 10.9375C13.0921 10.9375 10.9375 13.0921 10.9375 15.75C10.9375 18.4079 13.0921 20.5625 15.75 20.5625C18.4079 20.5625 20.5625 18.4079 20.5625 15.75C20.5625 13.0921 18.4079 10.9375 15.75 10.9375ZM13.5625 15.75C13.5625 14.5419 14.5419 13.5625 15.75 13.5625C16.9581 13.5625 17.9375 14.5419 17.9375 15.75C17.9375 16.9581 16.9581 17.9375 15.75 17.9375C14.5419 17.9375 13.5625 16.9581 13.5625 15.75Z" fill="#040085"/>
<path fill-rule="evenodd" clip-rule="evenodd" d="M15.75 21.4375C13.6574 21.4375 11.6981 21.8588 10.2133 22.6012C8.80701 23.3043 7.4375 24.5185 7.4375 26.25L7.43728 26.3593C7.43459 27.2525 7.43007 28.7563 8.8554 29.7881C9.51682 30.2668 10.3896 30.5722 11.4707 30.7667C12.5619 30.963 13.9601 31.0625 15.75 31.0625C17.5399 31.0625 18.9381 30.963 20.0293 30.7667C21.1104 30.5722 21.9832 30.2668 22.6446 29.7881C24.0699 28.7563 24.0654 27.2525 24.0627 26.3593L24.0625 26.25C24.0625 24.5185 22.693 23.3043 21.2867 22.6012C19.8019 21.8588 17.8426 21.4375 15.75 21.4375ZM10.0625 26.25C10.0625 26.0485 10.26 25.5127 11.3872 24.9491C12.4359 24.4247 13.9766 24.0625 15.75 24.0625C17.5234 24.0625 19.0641 24.4247 20.1128 24.9491C21.24 25.5127 21.4375 26.0485 21.4375 26.25C21.4375 27.3078 21.3701 27.47 21.1054 27.6617C20.8918 27.8163 20.4521 28.0235 19.5645 28.1832C18.6869 28.3411 17.4601 28.4375 15.75 28.4375C14.0399 28.4375 12.8131 28.3411 11.9355 28.1832C11.0479 28.0235 10.6082 27.8163 10.3946 27.6617C10.1299 27.47 10.0625 27.3078 10.0625 26.25Z" fill="#040085"/>
<path d="M33.25 22.3125C33.9749 22.3125 34.5625 21.7249 34.5625 21C34.5625 20.2751 33.9749 19.6875 33.25 19.6875H26.25C25.5251 19.6875 24.9375 20.2751 24.9375 21C24.9375 21.7249 25.5251 22.3125 26.25 22.3125H33.25Z" fill="#040085"/>
<path d="M34.5625 15.75C34.5625 16.4749 33.9749 17.0625 33.25 17.0625H24.5C23.7751 17.0625 23.1875 16.4749 23.1875 15.75C23.1875 15.0251 23.7751 14.4375 24.5 14.4375H33.25C33.9749 14.4375 34.5625 15.0251 34.5625 15.75Z" fill="#040085"/>
<path d="M33.25 27.5625C33.9749 27.5625 34.5625 26.9749 34.5625 26.25C34.5625 25.5251 33.9749 24.9375 33.25 24.9375H28C27.2751 24.9375 26.6875 25.5251 26.6875 26.25C26.6875 26.9749 27.2751 27.5625 28 27.5625H33.25Z" fill="#040085"/>
<path fill-rule="evenodd" clip-rule="evenodd" d="M17.4013 5.6875H24.5987C27.8148 5.68747 30.3622 5.68745 32.3558 5.95549C34.4075 6.23134 36.0682 6.81254 37.3778 8.12218C38.6875 9.43181 39.2687 11.0925 39.5445 13.1442C39.8125 15.1378 39.8125 17.6852 39.8125 20.9012V21.0987C39.8125 24.3148 39.8125 26.8622 39.5445 28.8558C39.2687 30.9075 38.6875 32.5682 37.3778 33.8778C36.0682 35.1875 34.4075 35.7687 32.3558 36.0445C30.3622 36.3125 27.8148 36.3125 24.5988 36.3125H17.4013C14.1852 36.3125 11.6378 36.3125 9.64421 36.0445C7.59247 35.7687 5.93181 35.1875 4.62218 33.8778C3.31254 32.5682 2.73134 30.9075 2.45549 28.8558C2.18745 26.8622 2.18747 24.3148 2.1875 21.0988V20.9013C2.18747 17.6852 2.18745 15.1378 2.45549 13.1442C2.73134 11.0925 3.31254 9.43181 4.62218 8.12218C5.93181 6.81254 7.59247 6.23134 9.64421 5.95549C11.6378 5.68745 14.1852 5.68747 17.4013 5.6875ZM9.99399 8.55708C8.23333 8.79379 7.21895 9.23772 6.47833 9.97833C5.73772 10.7189 5.29379 11.7333 5.05708 13.494C4.81529 15.2924 4.8125 17.6631 4.8125 21C4.8125 24.3369 4.81529 26.7076 5.05708 28.506C5.29379 30.2667 5.73772 31.2811 6.47833 32.0217C7.21895 32.7623 8.23333 33.2062 9.99399 33.4429C11.7924 33.6847 14.1631 33.6875 17.5 33.6875H24.5C27.8369 33.6875 30.2076 33.6847 32.006 33.4429C33.7667 33.2062 34.7811 32.7623 35.5217 32.0217C36.2623 31.2811 36.7062 30.2667 36.9429 28.506C37.1847 26.7076 37.1875 24.3369 37.1875 21C37.1875 17.6631 37.1847 15.2924 36.9429 13.494C36.7062 11.7333 36.2623 10.7189 35.5217 9.97833C34.7811 9.23771 33.7667 8.79379 32.006 8.55708C30.2076 8.31529 27.8369 8.3125 24.5 8.3125H17.5C14.1631 8.3125 11.7924 8.31529 9.99399 8.55708Z" fill="#040085"/>
</svg>
