<svg width="42" height="42" viewBox="0 0 42 42" fill="none" xmlns="http://www.w3.org/2000/svg">
<path d="M21 10.9375C21.7249 10.9375 22.3125 11.5251 22.3125 12.25V22.75C22.3125 23.4749 21.7249 24.0625 21 24.0625C20.2751 24.0625 19.6875 23.4749 19.6875 22.75V12.25C19.6875 11.5251 20.2751 10.9375 21 10.9375Z" fill="#040085"/>
<path d="M21 29.75C21.9665 29.75 22.75 28.9665 22.75 28C22.75 27.0335 21.9665 26.25 21 26.25C20.0335 26.25 19.25 27.0335 19.25 28C19.25 28.9665 20.0335 29.75 21 29.75Z" fill="#040085"/>
<path fill-rule="evenodd" clip-rule="evenodd" d="M2.1875 21C2.1875 10.6101 10.6101 2.1875 21 2.1875C31.3899 2.1875 39.8125 10.6101 39.8125 21C39.8125 31.3899 31.3899 39.8125 21 39.8125C10.6101 39.8125 2.1875 31.3899 2.1875 21ZM21 4.8125C12.0599 4.8125 4.8125 12.0599 4.8125 21C4.8125 29.9401 12.0599 37.1875 21 37.1875C29.9401 37.1875 37.1875 29.9401 37.1875 21C37.1875 12.0599 29.9401 4.8125 21 4.8125Z" fill="#040085"/>
</svg>
