<svg width="265" height="200" viewBox="0 0 265 200" fill="none" xmlns="http://www.w3.org/2000/svg">
<path d="M238.624 165.961L242.173 157.892L233.676 160.24C229.3 161.45 223.704 163.458 218.468 165.347L217.98 165.523C212.837 167.378 208.111 169.083 204.819 169.997C180.753 175.968 157.687 174.329 135.054 163.547C118.964 155.692 108.251 143.802 104.719 127.015C101.892 113.582 99.8456 99.8709 97.7969 86.1446C97.0768 81.3199 96.3565 76.4933 95.6018 71.6762C94.994 67.7442 94.5191 63.8498 94.0379 59.9035C93.9524 59.203 93.8668 58.5007 93.7802 57.7964C93.2095 53.1559 92.5993 48.4489 91.7341 43.7341L91.7233 43.6751L91.7108 43.6165C89.9001 35.1251 86.9987 28.6087 81.855 23.903C76.7446 19.2279 69.9545 16.8337 61.4504 15.4135L61.4429 15.4123C41.8371 12.1747 22.8141 17.4647 4.76278 30.9472C4.24242 29.4574 4.37858 28.264 4.70585 27.2904C5.3886 25.2593 7.27402 23.1368 10.0154 21.1588L10.0273 21.1503L10.0391 21.1417C17.2654 15.8509 25.2387 11.1504 33.1919 8.76744C42.5986 5.97731 53.0092 4.53543 62.5407 5.00447L62.5542 5.00513L62.5677 5.00571C74.7038 5.52426 83.7633 8.64574 90.4026 14.1643C97.0386 19.6802 101.723 27.9787 104.369 39.7474L104.371 39.7551C105.988 46.8846 107.024 54.0991 107.954 61.4553C108.183 63.2644 108.406 65.088 108.63 66.9213C109.309 72.4755 109.999 78.1192 110.894 83.7224C112.917 97.2963 115.206 111.126 117.988 124.939C120.295 136.761 127.672 144.999 137.348 150.886L137.36 150.894L137.373 150.901C152.01 159.667 167.553 162.932 184.633 161.447C188.233 161.186 191.558 160.685 195.085 159.919C205.812 157.691 209.873 155.92 216.597 152.989C219.215 151.848 222.236 150.531 226.212 148.942L234.833 145.497L226.543 141.317C216.684 136.344 210.635 131.956 204.57 127.518L204.243 127.279C199.98 124.159 195.658 120.995 190.062 117.681C192.711 118.385 195.358 119.083 198.002 119.781C214.648 124.169 231.171 128.526 247.063 134.326C254.36 137.002 257.944 140.271 259.335 143.683C260.722 147.083 260.429 151.85 257.077 158.705L257.065 158.73L257.053 158.755C251.17 171.204 242.786 182.509 234.113 193.638L234.047 193.722L234.013 193.771C234.013 193.771 234.013 193.771 234.012 193.772C234 193.779 233.823 193.954 233.306 194.196C232.692 194.483 231.849 194.746 230.861 194.926C229.123 195.242 227.524 195.205 226.551 195.02C226.315 194.599 226.035 193.946 225.781 193.104C225.505 192.192 225.304 191.208 225.208 190.31C225.108 189.368 225.148 188.74 225.207 188.452L225.229 188.347L225.245 188.24C225.375 187.381 225.853 186.117 226.835 184.375C227.79 182.677 229.051 180.82 230.485 178.789C230.858 178.261 231.246 177.717 231.643 177.16C234.141 173.66 236.999 169.656 238.624 165.961Z" fill="white" stroke="#A5C4FF" stroke-width="8.37289"/>
</svg>
