<svg width="38" height="38" viewBox="0 0 38 38" fill="none" xmlns="http://www.w3.org/2000/svg">
<path fill-rule="evenodd" clip-rule="evenodd" d="M17.159 0.187502H20.841C22.4133 0.187451 23.7245 0.187408 24.7653 0.327349C25.864 0.475057 26.8559 0.79998 27.653 1.59705C28.45 2.39412 28.7749 3.38602 28.9227 4.48466C29.0626 5.52553 29.0626 6.83667 29.0625 8.40901L29.0625 10.6876C30.0715 10.6884 30.9265 10.6961 31.6332 10.768C32.4618 10.8523 33.2307 11.0355 33.9237 11.4986C34.4492 11.8497 34.9003 12.3008 35.2514 12.8263C35.7145 13.5193 35.8977 14.2882 35.982 15.1168C36.0626 15.9084 36.0625 16.8862 36.0625 18.0579V35.1875H36.5C37.2249 35.1875 37.8125 35.7751 37.8125 36.5C37.8125 37.2249 37.2249 37.8125 36.5 37.8125H1.5C0.775126 37.8125 0.1875 37.2249 0.1875 36.5C0.1875 35.7751 0.775126 35.1875 1.5 35.1875H1.9375L1.9375 18.0579C1.93747 16.8861 1.93745 15.9084 2.01797 15.1168C2.10226 14.2882 2.28551 13.5193 2.74855 12.8263C3.09967 12.3008 3.55084 11.8497 4.07632 11.4986C4.76931 11.0355 5.53821 10.8523 6.36679 10.768C7.07345 10.6961 7.92851 10.6884 8.9375 10.6876L8.9375 8.40901C8.93745 6.83667 8.9374 5.52553 9.07734 4.48466C9.22505 3.38603 9.54998 2.39412 10.347 1.59705C11.1441 0.79998 12.136 0.475057 13.2347 0.327349C14.2755 0.187408 15.5867 0.187451 17.159 0.187502ZM8.9375 13.3127C7.91797 13.3138 7.19775 13.322 6.63245 13.3795C6.01143 13.4427 5.72448 13.5544 5.53469 13.6812C5.29584 13.8408 5.09076 14.0458 4.93116 14.2847C4.80435 14.4745 4.69267 14.7614 4.62949 15.3825C4.56409 16.0254 4.5625 16.8688 4.5625 18.125V35.1875H8.9375V13.3127ZM11.5625 35.1875H17.6875V31.25C17.6875 30.5251 18.2751 29.9375 19 29.9375C19.7249 29.9375 20.3125 30.5251 20.3125 31.25V35.1875H26.4375V8.5C26.4375 6.81298 26.4347 5.67975 26.3211 4.83444C26.2125 4.02688 26.0249 3.68126 25.7968 3.45321C25.5687 3.22515 25.2231 3.03751 24.4156 2.92894C23.5702 2.81529 22.437 2.8125 20.75 2.8125H17.25C15.563 2.8125 14.4298 2.81529 13.5844 2.92894C12.7769 3.03751 12.4313 3.22515 12.2032 3.45321C11.9751 3.68126 11.7875 4.02688 11.6789 4.83444C11.5653 5.67975 11.5625 6.81298 11.5625 8.5V35.1875ZM29.0625 35.1875H33.4375V18.125C33.4375 16.8688 33.4359 16.0254 33.3705 15.3825C33.3073 14.7614 33.1957 14.4745 33.0688 14.2847C32.9092 14.0458 32.7042 13.8408 32.4653 13.6812C32.2755 13.5544 31.9886 13.4427 31.3676 13.3795C30.8023 13.322 30.082 13.3138 29.0625 13.3127V35.1875ZM14.1875 6.75C14.1875 6.02513 14.7751 5.4375 15.5 5.4375H22.5C23.2249 5.4375 23.8125 6.02513 23.8125 6.75C23.8125 7.47488 23.2249 8.0625 22.5 8.0625H15.5C14.7751 8.0625 14.1875 7.47488 14.1875 6.75ZM14.1875 12C14.1875 11.2751 14.7751 10.6875 15.5 10.6875H22.5C23.2249 10.6875 23.8125 11.2751 23.8125 12C23.8125 12.7249 23.2249 13.3125 22.5 13.3125H15.5C14.7751 13.3125 14.1875 12.7249 14.1875 12ZM14.1875 17.25C14.1875 16.5251 14.7751 15.9375 15.5 15.9375H22.5C23.2249 15.9375 23.8125 16.5251 23.8125 17.25C23.8125 17.9749 23.2249 18.5625 22.5 18.5625H15.5C14.7751 18.5625 14.1875 17.9749 14.1875 17.25ZM14.1875 22.5C14.1875 21.7751 14.7751 21.1875 15.5 21.1875H22.5C23.2249 21.1875 23.8125 21.7751 23.8125 22.5C23.8125 23.2249 23.2249 23.8125 22.5 23.8125H15.5C14.7751 23.8125 14.1875 23.2249 14.1875 22.5Z" fill="black"/>
</svg>
