<svg width="42" height="42" viewBox="0 0 42 42" fill="none" xmlns="http://www.w3.org/2000/svg">
<path fill-rule="evenodd" clip-rule="evenodd" d="M13.904 2.1875H28.096C30.4893 2.18746 32.4184 2.18744 33.9356 2.39142C35.5108 2.6032 36.837 3.05626 37.8904 4.10961C38.9437 5.16297 39.3968 6.48925 39.6086 8.06444C39.8126 9.58163 39.8125 11.5107 39.8125 13.904V21.096C39.8125 23.4893 39.8126 25.4184 39.6086 26.9356C39.3968 28.5108 38.9437 29.837 37.8904 30.8904C37.019 31.7617 35.957 32.2255 34.7132 32.4788C34.0793 32.6078 33.3767 32.6862 32.6028 32.7343C32.6068 32.7432 32.6107 32.7522 32.6146 32.7612C33.0922 33.8818 32.6846 35.1852 31.5998 35.8002C31.2736 35.9851 30.9229 36.0516 30.6776 36.0896C30.4214 36.1294 30.1011 36.1607 29.7454 36.1955L29.7107 36.1989C29.4819 36.2213 29.352 36.2344 29.2555 36.2481C29.2117 36.2543 29.1885 36.259 29.1793 36.261C29.152 36.2718 29.1335 36.285 29.1216 36.2964C29.1127 36.3049 29.1062 36.3136 29.1014 36.3224C29.0994 36.3322 29.0964 36.3482 29.0928 36.3718C29.0791 36.4599 29.066 36.5803 29.0424 36.801L29.0386 36.8372C29.0026 37.1755 28.9694 37.4867 28.9272 37.7371C28.8865 37.9785 28.8134 38.3344 28.6101 38.6641C27.9551 39.7261 26.6478 40.0545 25.5721 39.6331C25.2363 39.5015 24.9669 39.2872 24.7725 39.1201C24.5733 38.9488 24.3387 38.7239 24.0759 38.472L21 35.5231L17.9241 38.4719C17.6614 38.7239 17.4267 38.9488 17.2275 39.1201C17.0331 39.2872 16.7637 39.5015 16.4279 39.6331C15.3522 40.0545 14.0449 39.7261 13.39 38.6641C13.1866 38.3344 13.1135 37.9785 13.0728 37.7371C13.0306 37.4867 12.9974 37.1754 12.9614 36.837L12.9576 36.801C12.934 36.5803 12.9209 36.4599 12.9072 36.3718C12.9036 36.3482 12.9006 36.3322 12.8986 36.3224C12.8938 36.3136 12.8873 36.3049 12.8784 36.2964C12.8665 36.285 12.848 36.2718 12.8207 36.261C12.8115 36.259 12.7883 36.2544 12.7445 36.2481C12.648 36.2344 12.5181 36.2213 12.2893 36.1989L12.2546 36.1955C11.8989 36.1607 11.5786 36.1294 11.3224 36.0896C11.0771 36.0516 10.7264 35.9851 10.4002 35.8002C9.31538 35.1852 8.90783 33.8818 9.38545 32.7612C9.38931 32.7522 9.39325 32.7431 9.39723 32.7342C8.69957 32.6909 8.0625 32.6232 7.48362 32.5168C6.15712 32.2732 5.02824 31.809 4.10961 30.8904C3.05626 29.837 2.6032 28.5108 2.39142 26.9356C2.18744 25.4184 2.18746 23.4893 2.1875 21.096V13.904C2.18746 11.5107 2.18744 9.58163 2.39142 8.06444C2.6032 6.48925 3.05626 5.16297 4.10961 4.10961C5.16297 3.05626 6.48925 2.6032 8.06444 2.39142C9.58163 2.18744 11.5107 2.18746 13.904 2.1875ZM11.7826 30.1809L13.2102 28.8122L14.4513 27.5711C14.6722 24.1466 17.5197 21.4375 21 21.4375C24.4803 21.4375 27.3278 24.1466 27.5487 27.5711L28.7898 28.8121L30.2963 30.2565L30.2955 30.1801C32.0222 30.1618 33.253 30.0972 34.1894 29.9066C35.0898 29.7232 35.6283 29.4401 36.0342 29.0342C36.5186 28.5499 36.8344 27.8699 37.007 26.5858C37.1847 25.2639 37.1875 23.512 37.1875 21V14C37.1875 11.488 37.1847 9.73608 37.007 8.41421C36.8344 7.13011 36.5186 6.4501 36.0342 5.96577C35.5499 5.48143 34.8699 5.16565 33.5858 4.99301C32.2639 4.81529 30.512 4.8125 28 4.8125H14C11.488 4.8125 9.73608 4.81529 8.41421 4.99301C7.13011 5.16565 6.4501 5.48143 5.96577 5.96577C5.48143 6.45011 5.16565 7.13011 4.99301 8.41421C4.81529 9.73608 4.8125 11.488 4.8125 14V21C4.8125 23.512 4.81529 25.2639 4.99301 26.5858C5.16565 27.8699 5.48143 28.5499 5.96577 29.0342C6.39181 29.4603 6.96594 29.7528 7.95786 29.935C8.90003 30.1081 10.1161 30.1644 11.7826 30.1809ZM26.9779 30.7116C26.2664 32.2776 24.9575 33.5148 23.3423 34.1322L25.8683 36.5539C26.0924 36.7687 26.2515 36.9209 26.3758 37.0338C26.3917 36.9013 26.4095 36.7359 26.4322 36.5229C26.4353 36.494 26.4384 36.4645 26.4415 36.4344C26.4748 36.113 26.5144 35.7324 26.6471 35.3887C26.941 34.6274 27.5536 34.0524 28.3089 33.7844C28.6489 33.6637 29.0253 33.6276 29.364 33.5952C29.3947 33.5923 29.425 33.5894 29.4549 33.5864C29.6429 33.568 29.7967 33.5529 29.9249 33.5392C29.8252 33.4415 29.7028 33.324 29.55 33.1775L26.9779 30.7116ZM21.0527 31.9372L21 31.8866L20.9473 31.9372C18.797 31.9089 17.0625 30.157 17.0625 28C17.0625 25.8254 18.8254 24.0625 21 24.0625C23.1746 24.0625 24.9375 25.8254 24.9375 28C24.9375 30.157 23.2031 31.9089 21.0527 31.9372ZM18.6577 34.1322L16.1317 36.5539C15.9076 36.7687 15.7485 36.9209 15.6242 37.0338C15.6083 36.9013 15.5905 36.7359 15.5678 36.5229C15.5647 36.494 15.5616 36.4645 15.5585 36.4344C15.5252 36.113 15.4857 35.7324 15.3529 35.3887C15.059 34.6274 14.4464 34.0524 13.6912 33.7844C13.3511 33.6637 12.9747 33.6276 12.6359 33.5952C12.6053 33.5923 12.575 33.5894 12.5451 33.5864C12.3571 33.568 12.2033 33.5529 12.0751 33.5392C12.1748 33.4415 12.2972 33.324 12.45 33.1775L15.0221 30.7116C15.7336 32.2776 17.0425 33.5148 18.6577 34.1322ZM14.4375 10.5C14.4375 9.77513 15.0251 9.1875 15.75 9.1875H26.25C26.9749 9.1875 27.5625 9.77513 27.5625 10.5C27.5625 11.2249 26.9749 11.8125 26.25 11.8125H15.75C15.0251 11.8125 14.4375 11.2249 14.4375 10.5ZM10.9375 16.625C10.9375 15.9001 11.5251 15.3125 12.25 15.3125H29.75C30.4749 15.3125 31.0625 15.9001 31.0625 16.625C31.0625 17.3499 30.4749 17.9375 29.75 17.9375H12.25C11.5251 17.9375 10.9375 17.3499 10.9375 16.625Z" fill="black"/>
</svg>
