<svg width="38" height="38" viewBox="0 0 38 38" fill="none" xmlns="http://www.w3.org/2000/svg">
<path fill-rule="evenodd" clip-rule="evenodd" d="M7.1875 23.3751C7.1875 22.6502 7.77513 22.0626 8.5 22.0626H22.5C23.2249 22.0626 23.8125 22.6502 23.8125 23.3751C23.8125 24.1 23.2249 24.6876 22.5 24.6876H8.5C7.77513 24.6876 7.1875 24.1 7.1875 23.3751Z" fill="black"/>
<path fill-rule="evenodd" clip-rule="evenodd" d="M7.1875 29.5001C7.1875 28.7752 7.77513 28.1876 8.5 28.1876H18.125C18.8499 28.1876 19.4375 28.7752 19.4375 29.5001C19.4375 30.225 18.8499 30.8126 18.125 30.8126H8.5C7.77513 30.8126 7.1875 30.225 7.1875 29.5001Z" fill="black"/>
<path fill-rule="evenodd" clip-rule="evenodd" d="M19.4375 2.95988C18.6318 2.82297 17.5335 2.81259 15.5521 2.81259C12.1979 2.81259 9.81381 2.81535 8.00624 3.05727C6.23544 3.29427 5.21793 3.73883 4.47833 4.47842C3.73771 5.21904 3.29379 6.23342 3.05708 7.99407C2.81529 9.79249 2.8125 12.1632 2.8125 15.5001V22.5001C2.8125 25.837 2.81529 28.2077 3.05708 30.0061C3.29379 31.7668 3.73771 32.7811 4.47833 33.5218C5.21895 34.2624 6.23333 34.7063 7.99399 34.943C9.7924 35.1848 12.1631 35.1876 15.5 35.1876H22.5C25.8369 35.1876 28.2076 35.1848 30.006 34.943C31.7667 34.7063 32.7811 34.2624 33.5217 33.5218C34.2623 32.7811 34.7062 31.7668 34.9429 30.0061C35.1847 28.2077 35.1875 25.837 35.1875 22.5001V21.7352C35.1875 19.0471 35.1686 17.7729 34.8833 16.8126H29.4061C27.4236 16.8126 25.8036 16.8127 24.5246 16.6407C23.1876 16.461 22.0285 16.072 21.1033 15.1468C20.1781 14.2215 19.7891 13.0625 19.6094 11.7255C19.4374 10.4465 19.4375 8.8265 19.4375 6.84404V2.95988ZM22.0625 4.31663V6.75009C22.0625 8.84959 22.0653 10.2922 22.211 11.3758C22.3516 12.4216 22.6033 12.9344 22.9595 13.2906C23.3157 13.6468 23.8285 13.8985 24.8743 14.0391C25.9579 14.1848 27.4005 14.1876 29.5 14.1876H33.0341C32.5153 13.6844 31.8506 13.0814 30.9875 12.3046L24.0596 6.06954C23.2102 5.30507 22.578 4.74078 22.0625 4.31663ZM15.8071 0.187544C18.2301 0.186896 19.7955 0.186477 21.2364 0.739369C22.6772 1.29225 23.8355 2.33535 25.6278 3.94922C25.6896 4.00493 25.7522 4.06132 25.8157 4.1184L32.7435 10.3535C32.8173 10.4198 32.8901 10.4854 32.9621 10.5501C35.0335 12.4132 36.373 13.618 37.0935 15.2358C37.814 16.8535 37.8134 18.6551 37.8126 21.4411C37.8125 21.5379 37.8125 21.6359 37.8125 21.7352V22.5988C37.8125 25.8149 37.8126 28.3623 37.5445 30.3559C37.2687 32.4076 36.6875 34.0683 35.3778 35.3779C34.0682 36.6876 32.4075 37.2688 30.3558 37.5446C28.3622 37.8126 25.8148 37.8126 22.5987 37.8126H15.4013C12.1852 37.8126 9.63784 37.8126 7.64421 37.5446C5.59247 37.2688 3.93181 36.6876 2.62218 35.3779C1.31254 34.0683 0.731336 32.4076 0.455487 30.3559C0.187451 28.3623 0.187473 25.8149 0.187501 22.5988V15.4014C0.187473 12.1853 0.187451 9.63792 0.455487 7.6443C0.731336 5.59256 1.31254 3.9319 2.62218 2.62226C3.93284 1.3116 5.59906 0.731035 7.65802 0.45547C9.65995 0.187539 12.22 0.187561 15.4537 0.187588L15.5521 0.187589C15.6382 0.187589 15.7231 0.187566 15.8071 0.187544Z" fill="black"/>
</svg>
