<svg width="30" height="38" viewBox="0 0 30 38" fill="none" xmlns="http://www.w3.org/2000/svg">
<path fill-rule="evenodd" clip-rule="evenodd" d="M13.1583 0.187502H16.8403C18.4126 0.187451 19.7237 0.187408 20.7646 0.327349C21.8633 0.475057 22.8552 0.79998 23.6522 1.59705C24.4493 2.39412 24.7742 3.38602 24.9219 4.48466C25.0619 5.52553 25.0618 6.83667 25.0618 8.40901L25.0618 10.7419L26.5308 11.5429C28.6396 12.6928 29.9517 14.9027 29.9517 17.3046V25.9454C29.9517 28.3473 28.6396 30.5572 26.5308 31.7071L18.1409 36.2819C16.1826 37.3497 13.8159 37.3497 11.8576 36.2819L3.4677 31.7071C1.35898 30.5572 0.046875 28.3473 0.046875 25.9454V17.3046C0.046875 14.9027 1.35899 12.6928 3.4677 11.5429L4.93678 10.7419L4.93677 8.409C4.93672 6.83666 4.93668 5.52553 5.07662 4.48466C5.22433 3.38603 5.54925 2.39412 6.34632 1.59705C7.1434 0.79998 8.1353 0.475057 9.23394 0.327349C10.2748 0.187408 11.5859 0.187451 13.1583 0.187502ZM7.56178 9.31055L11.8576 6.96814C13.8159 5.9003 16.1826 5.90031 18.1409 6.96814L22.4368 9.31055V8.5C22.4368 6.81298 22.434 5.67975 22.3203 4.83444C22.2118 4.02688 22.0241 3.68126 21.7961 3.45321C21.568 3.22515 21.2224 3.03751 20.4148 2.92894C19.5695 2.81529 18.4363 2.8125 16.7493 2.8125H13.2493C11.5623 2.8125 10.429 2.81529 9.58371 2.92894C8.77615 3.03751 8.43053 3.22515 8.20248 3.45321C7.97442 3.68126 7.78678 4.02688 7.67821 4.83444C7.56456 5.67975 7.56178 6.81298 7.56178 8.5V9.31055ZM16.8843 9.27279C15.7093 8.63209 14.2893 8.63209 13.1143 9.27279L4.72437 13.8476C3.45914 14.5375 2.67188 15.8635 2.67188 17.3046V25.9454C2.67188 27.3865 3.45914 28.7125 4.72437 29.4024L13.1143 33.9772C14.2893 34.6179 15.7093 34.6179 16.8843 33.9772L25.2742 29.4024C26.5394 28.7125 27.3267 27.3865 27.3267 25.9454V17.3046C27.3267 15.8635 26.5394 14.5375 25.2742 13.8476L16.8843 9.27279ZM14.9993 18.1856C14.8975 18.3618 14.7844 18.5646 14.6511 18.8037L14.4791 19.1124C14.4669 19.1341 14.4539 19.1579 14.44 19.1834C14.3025 19.4348 14.075 19.8509 13.6955 20.139C13.3081 20.4331 12.842 20.5343 12.5695 20.5935C12.5423 20.5994 12.5169 20.6049 12.4938 20.6101L12.1597 20.6857C11.8531 20.7551 11.6034 20.8117 11.3899 20.8653C11.5288 21.0363 11.7092 21.2486 11.9438 21.523L12.1716 21.7893C12.1877 21.8082 12.2053 21.8284 12.224 21.85C12.4129 22.0676 12.7179 22.4188 12.8589 22.8723C12.9983 23.3205 12.9502 23.782 12.9199 24.0732C12.9168 24.1023 12.914 24.1296 12.9115 24.1551L12.8771 24.5104C12.8452 24.8399 12.8203 25.1028 12.8038 25.3167C12.9862 25.2364 13.1936 25.1409 13.4401 25.0274L13.7529 24.8834C13.7744 24.8735 13.798 24.8624 13.8235 24.8503C14.0746 24.7319 14.5116 24.5258 14.9993 24.5258C15.4869 24.5258 15.9239 24.7319 16.175 24.8503C16.2005 24.8624 16.2241 24.8735 16.2457 24.8834L16.5585 25.0274C16.8049 25.1409 17.0124 25.2364 17.1947 25.3167C17.1782 25.1028 17.1534 24.8399 17.1215 24.5104L17.087 24.1551C17.0846 24.1296 17.0817 24.1023 17.0787 24.0732C17.0484 23.782 17.0003 23.3205 17.1396 22.8723C17.2807 22.4188 17.5856 22.0676 17.7745 21.85C17.7932 21.8284 17.8108 21.8082 17.827 21.7893L18.0547 21.523C18.2894 21.2486 18.4698 21.0363 18.6087 20.8653C18.3951 20.8117 18.1454 20.7551 17.8389 20.6857L17.5048 20.6101C17.4816 20.6049 17.4563 20.5994 17.429 20.5935C17.1565 20.5343 16.6905 20.4331 16.3031 20.139C15.9236 19.8509 15.696 19.4348 15.5586 19.1834C15.5446 19.1579 15.5316 19.1341 15.5195 19.1124L15.3475 18.8037C15.2141 18.5646 15.101 18.3618 14.9993 18.1856ZM13.2729 16.0246C13.5742 15.6312 14.1213 15.0628 14.9993 15.0628C15.8772 15.0628 16.4244 15.6312 16.7257 16.0246C17.0132 16.4001 17.3028 16.92 17.5997 17.4529C17.6132 17.4771 17.6267 17.5013 17.6403 17.5256L17.8123 17.8342C17.8522 17.9058 17.8836 17.9621 17.9111 18.0103C17.9589 18.0215 18.0146 18.0341 18.0841 18.0499L18.4182 18.1255C18.4455 18.1316 18.4729 18.1378 18.5003 18.144C19.0739 18.2736 19.644 18.4025 20.0817 18.5749C20.5649 18.7654 21.22 19.1363 21.4724 19.9481C21.7204 20.7456 21.4075 21.4212 21.1341 21.8553C20.8812 22.2572 20.4967 22.7065 20.1031 23.1666C20.0853 23.1874 20.0675 23.2082 20.0497 23.229L19.822 23.4953C19.7616 23.5659 19.7161 23.6191 19.6778 23.6652C19.683 23.7288 19.6902 23.8028 19.6998 23.9019L19.7342 24.2572C19.7368 24.2844 19.7395 24.3114 19.7421 24.3385C19.8019 24.9543 19.8597 25.5495 19.8385 26.0256C19.8163 26.5248 19.6965 27.2804 19.0189 27.7948C18.32 28.3254 17.548 28.2098 17.0585 28.0695C16.6075 27.9403 16.0745 27.6947 15.5378 27.4474C15.5121 27.4355 15.4863 27.4237 15.4606 27.4118L15.1478 27.2678C15.0893 27.2409 15.0412 27.2187 14.9993 27.1998C14.9574 27.2187 14.9093 27.2409 14.8507 27.2678L14.5379 27.4118C14.5122 27.4237 14.4865 27.4355 14.4608 27.4474C13.924 27.6947 13.3911 27.9403 12.94 28.0695C12.4505 28.2098 11.6786 28.3254 10.9796 27.7948C10.3021 27.2804 10.1823 26.5248 10.16 26.0256C10.1388 25.5495 10.1966 24.9543 10.2564 24.3385C10.2591 24.3114 10.2617 24.2844 10.2643 24.2572L10.2988 23.9019C10.3084 23.8028 10.3155 23.7288 10.3207 23.6652C10.2824 23.6191 10.2369 23.5659 10.1766 23.4953L9.94883 23.229C9.93101 23.2082 9.9132 23.1874 9.89541 23.1666C9.50181 22.7065 9.11736 22.2572 8.8644 21.8553C8.59108 21.4212 8.27811 20.7456 8.52612 19.9481C8.77858 19.1363 9.43361 18.7654 9.91686 18.5749C10.3545 18.4025 10.9246 18.2736 11.4983 18.144C11.5256 18.1378 11.553 18.1316 11.5804 18.1255L11.9145 18.0499C11.984 18.0341 12.0396 18.0215 12.0874 18.0103C12.1149 17.9621 12.1463 17.9058 12.1862 17.8342L12.3583 17.5256C12.3718 17.5014 12.3853 17.4771 12.3988 17.4529C12.6957 16.92 12.9853 16.4002 13.2729 16.0246Z" fill="black"/>
</svg>
