<svg width="38" height="32" viewBox="0 0 38 32" fill="none" xmlns="http://www.w3.org/2000/svg">
<path d="M26.6721 21.5024C27.2948 21.1313 27.4987 20.3257 27.1276 19.703C26.7565 19.0804 25.9508 18.8764 25.3282 19.2476L18.3282 23.4197C17.7055 23.7908 17.5016 24.5964 17.8727 25.2191C18.2438 25.8418 19.0494 26.0457 19.6721 25.6746L26.6721 21.5024Z" fill="black"/>
<path fill-rule="evenodd" clip-rule="evenodd" d="M16.9691 1.1952C17.6186 0.892279 18.267 0.6875 19.0001 0.6875C19.7333 0.6875 20.3817 0.892279 21.0312 1.1952C21.6411 1.47966 22.3363 1.8929 23.1535 2.37874L28.4375 5.51961C29.2552 6.00567 29.9503 6.41879 30.4939 6.81996C30.757 7.01407 31.0013 7.21697 31.2233 7.4405L35.7721 4.40793C36.3752 4.00585 37.1901 4.16882 37.5922 4.77196C37.9943 5.37509 37.8313 6.18998 37.2282 6.59207L32.4192 9.79806C32.4532 9.98927 32.4784 10.1842 32.4974 10.3835C32.5627 11.065 32.5627 11.8877 32.5626 12.8624V19.1376C32.5627 20.1123 32.5627 20.935 32.4974 21.6165C32.4283 22.339 32.2789 23.0041 31.9212 23.642C31.5624 24.2818 31.0737 24.7523 30.4939 25.18C29.9503 25.5812 29.2553 25.9943 28.4375 26.4804L23.1536 29.6212C22.3364 30.107 21.641 30.5204 21.0312 30.8048C20.3817 31.1077 19.7333 31.3125 19.0001 31.3125C18.267 31.3125 17.6186 31.1077 16.9691 30.8048C16.3593 30.5204 15.6642 30.1072 14.8471 29.6215L9.56282 26.4804C8.74499 25.9943 8.05002 25.5812 7.50634 25.18C7.24328 24.9859 6.99897 24.783 6.77703 24.5595L2.22818 27.5921C1.62505 27.9942 0.810161 27.8312 0.408073 27.228C0.00598586 26.6249 0.168964 25.81 0.772096 25.4079L5.58109 22.2019C5.54711 22.0107 5.52192 21.8158 5.50284 21.6165C5.43759 20.935 5.43761 20.1123 5.43764 19.1376V12.8624C5.43761 11.8877 5.43759 11.065 5.50284 10.3835C5.52192 10.1842 5.54711 9.98927 5.58109 9.79806L0.772096 6.59207C0.168964 6.18998 0.00598586 5.37509 0.408073 4.77196C0.810161 4.16882 1.62505 4.00585 2.22818 4.40793L6.77703 7.4405C6.99897 7.21697 7.24328 7.01407 7.50634 6.81996C8.05003 6.41877 8.74501 6.00569 9.56285 5.51959L14.8468 2.37874C15.664 1.8929 16.3592 1.47966 16.9691 1.1952ZM18.0786 3.57419C17.602 3.79647 17.0198 4.14077 16.1345 4.66702L10.957 7.74459C10.072 8.27066 9.49092 8.61783 9.06494 8.93216C8.66332 9.22852 8.48366 9.43695 8.3687 9.64197C8.25262 9.84895 8.16515 10.1192 8.11589 10.6337C8.06403 11.1754 8.06264 11.8718 8.06264 12.9224V19.0776C8.06264 20.1282 8.06403 20.8246 8.11589 21.3663C8.16515 21.8808 8.25262 22.151 8.3687 22.358C8.48367 22.5631 8.66332 22.7715 9.06494 23.0678C9.49092 23.3822 10.072 23.7293 10.957 24.2554L16.1345 27.333C17.0198 27.8592 17.602 28.2035 18.0786 28.4258C18.5289 28.6358 18.7858 28.6875 19.0001 28.6875C19.2145 28.6875 19.4714 28.6358 19.9217 28.4258C20.3983 28.2035 20.9805 27.8592 21.8658 27.333L27.0432 24.2554C27.9282 23.7293 28.5094 23.3822 28.9353 23.0678C29.337 22.7715 29.5166 22.5631 29.6316 22.358C29.7477 22.151 29.8351 21.8808 29.8844 21.3663C29.9363 20.8246 29.9376 20.1282 29.9376 19.0776V12.9224C29.9376 11.8718 29.9363 11.1754 29.8844 10.6337C29.8351 10.1192 29.7477 9.84895 29.6316 9.64197C29.5166 9.43695 29.337 9.22852 28.9353 8.93216C28.5094 8.61783 27.9282 8.27066 27.0432 7.74459L21.8658 4.66702C20.9805 4.14077 20.3983 3.79647 19.9217 3.57419C19.4714 3.36419 19.2145 3.3125 19.0001 3.3125C18.7858 3.3125 18.5289 3.36419 18.0786 3.57419Z" fill="black"/>
</svg>
