<svg width="36" height="38" viewBox="0 0 36 38" fill="none" xmlns="http://www.w3.org/2000/svg">
<path fill-rule="evenodd" clip-rule="evenodd" d="M9.70955 3.7058C9.91883 1.72827 11.592 0.1875 13.625 0.1875H22.375C24.408 0.1875 26.0812 1.72827 26.2905 3.7058C27.6258 3.73298 28.7805 3.80206 29.7664 3.98316C31.0929 4.22681 32.2218 4.69098 33.1404 5.60961C34.1937 6.66297 34.6468 7.98925 34.8586 9.56444C35.0626 11.0816 35.0625 13.0107 35.0625 15.404V26.096C35.0625 28.4893 35.0626 30.4184 34.8586 31.9356C34.6468 33.5108 34.1937 34.837 33.1404 35.8904C32.087 36.9437 30.7608 37.3968 29.1856 37.6086C27.6684 37.8126 25.7393 37.8125 23.346 37.8125H12.654C10.2607 37.8125 8.33163 37.8126 6.81444 37.6086C5.23925 37.3968 3.91297 36.9437 2.85961 35.8904C1.80626 34.837 1.3532 33.5108 1.14142 31.9356C0.937436 30.4184 0.937465 28.4893 0.937501 26.096V15.404C0.937465 13.0107 0.937436 11.0816 1.14142 9.56444C1.3532 7.98925 1.80626 6.66297 2.85961 5.60961C3.77824 4.69098 4.90712 4.22681 6.23362 3.98316C7.21952 3.80206 8.37416 3.73298 9.70955 3.7058ZM9.71369 6.33151C8.45687 6.35836 7.48838 6.42159 6.70786 6.56496C5.71594 6.74716 5.14181 7.03972 4.71577 7.46577C4.23143 7.9501 3.91565 8.6301 3.74301 9.91421C3.56529 11.2361 3.5625 12.988 3.5625 15.5V26C3.5625 28.512 3.56529 30.2639 3.74301 31.5858C3.91565 32.8699 4.23143 33.5499 4.71577 34.0342C5.2001 34.5186 5.88011 34.8343 7.16421 35.007C8.48608 35.1847 10.238 35.1875 12.75 35.1875H23.25C25.762 35.1875 27.5139 35.1847 28.8358 35.007C30.1199 34.8343 30.7999 34.5186 31.2842 34.0342C31.7686 33.5499 32.0844 32.8699 32.257 31.5858C32.4347 30.2639 32.4375 28.512 32.4375 26V15.5C32.4375 12.988 32.4347 11.2361 32.257 9.91421C32.0844 8.6301 31.7686 7.9501 31.2842 7.46577C30.8582 7.03972 30.2841 6.74716 29.2921 6.56496C28.5116 6.42159 27.5431 6.35836 26.2863 6.33151C26.0601 8.29108 24.3952 9.8125 22.375 9.8125H13.625C11.6048 9.8125 9.93993 8.29108 9.71369 6.33151ZM13.625 2.8125C12.9001 2.8125 12.3125 3.40013 12.3125 4.125V5.875C12.3125 6.59987 12.9001 7.1875 13.625 7.1875H22.375C23.0999 7.1875 23.6875 6.59987 23.6875 5.875V4.125C23.6875 3.40013 23.0999 2.8125 22.375 2.8125H13.625ZM7.9375 16.375C7.9375 15.6501 8.52513 15.0625 9.25 15.0625H26.75C27.4749 15.0625 28.0625 15.6501 28.0625 16.375C28.0625 17.0999 27.4749 17.6875 26.75 17.6875H9.25C8.52513 17.6875 7.9375 17.0999 7.9375 16.375ZM9.6875 22.5C9.6875 21.7751 10.2751 21.1875 11 21.1875H25C25.7249 21.1875 26.3125 21.7751 26.3125 22.5C26.3125 23.2249 25.7249 23.8125 25 23.8125H11C10.2751 23.8125 9.6875 23.2249 9.6875 22.5ZM11.4375 28.625C11.4375 27.9001 12.0251 27.3125 12.75 27.3125H23.25C23.9749 27.3125 24.5625 27.9001 24.5625 28.625C24.5625 29.3499 23.9749 29.9375 23.25 29.9375H12.75C12.0251 29.9375 11.4375 29.3499 11.4375 28.625Z" fill="black"/>
</svg>
