<svg width="142" height="142" viewBox="0 0 142 142" fill="none" xmlns="http://www.w3.org/2000/svg">
<path fill-rule="evenodd" clip-rule="evenodd" d="M71.0007 16.271C40.7746 16.271 16.2715 40.7741 16.2715 71.0002C16.2715 79.7631 18.3277 88.033 21.9799 95.3655C23.4457 98.3085 24.0101 101.828 23.0853 105.284L19.5613 118.455C18.9141 120.874 21.1271 123.087 23.546 122.44L36.7167 118.916C40.1732 117.991 43.6923 118.555 46.6353 120.021C53.9678 123.673 62.2377 125.729 71.0007 125.729C101.227 125.729 125.73 101.226 125.73 71.0002C125.73 40.7741 101.227 16.271 71.0007 16.271ZM7.39648 71.0002C7.39648 35.8726 35.873 7.396 71.0007 7.396C106.128 7.396 134.605 35.8726 134.605 71.0002C134.605 106.128 106.128 134.604 71.0007 134.604C60.834 134.604 51.2125 132.216 42.6785 127.965C41.4049 127.331 40.1046 127.196 39.0107 127.489L25.8399 131.013C16.8239 133.425 8.57552 125.177 10.9879 116.161L14.5119 102.99C14.8046 101.896 14.67 100.596 14.0357 99.3224C9.78508 90.7883 7.39648 81.1668 7.39648 71.0002ZM91.8884 56.029C93.6214 57.762 93.6214 60.5717 91.8884 62.3046L68.2218 85.9713C66.5138 87.6793 63.7534 87.7075 62.0109 86.0347L50.1775 74.6747C48.4096 72.9774 48.3523 70.1683 50.0495 68.4004C51.7467 66.6324 54.5558 66.5751 56.3238 68.2723L65.0206 76.6213L85.6129 56.029C87.3458 54.2961 90.1555 54.2961 91.8884 56.029Z" fill="#1A9F29"/>
</svg>
