<svg width="42" height="42" viewBox="0 0 42 42" fill="none" xmlns="http://www.w3.org/2000/svg">
<path fill-rule="evenodd" clip-rule="evenodd" d="M20.9208 3.9375H21.0792C24.2931 3.93749 26.8124 3.93747 28.8112 4.15402C30.8509 4.37501 32.5035 4.83407 33.9146 5.85927C34.7688 6.47992 35.5201 7.23116 36.1407 8.08541C37.1659 9.49648 37.625 11.1491 37.846 13.1888C38.0625 15.1876 38.0625 17.7069 38.0625 20.9208V25.8872C38.1993 25.8388 38.3466 25.8125 38.5 25.8125C39.2249 25.8125 39.8125 26.4001 39.8125 27.125V30.625C39.8125 31.3499 39.2249 31.9375 38.5 31.9375C38.3414 31.9375 38.1893 31.9094 38.0485 31.8578C38.0389 32.2086 38.0227 32.5316 37.9952 32.8277C37.9246 33.5895 37.7722 34.2919 37.3955 34.9497C37.1449 35.3873 36.8297 35.784 36.4597 36.125C35.8989 36.6418 35.249 36.9355 34.5295 37.1536C33.8495 37.3597 33.005 37.5262 32.0047 37.7235L31.8748 37.7491C31.1918 37.8838 30.5715 38.0062 30.0554 38.0469C29.4999 38.0907 28.8738 38.0601 28.2739 37.7225C27.9187 37.5226 27.6083 37.2539 27.3584 36.9343C26.9432 36.403 26.8043 35.7966 26.7441 35.2383C26.6874 34.7119 26.6874 34.0627 26.6875 33.3339V24.1704C26.6875 23.5511 26.6874 22.9947 26.7319 22.5378C26.7794 22.0503 26.8882 21.5235 27.2091 21.0354C27.4735 20.6333 27.8277 20.2961 28.247 20.0545C28.7634 19.7568 29.3017 19.6909 29.7877 19.6876C30.2369 19.6846 30.776 19.7378 31.364 19.7958L31.4866 19.8079C32.5115 19.9089 33.3738 19.9939 34.0726 20.1323C34.5539 20.2277 35.01 20.3573 35.4375 20.5631C35.437 17.479 35.4268 15.2305 35.2362 13.4716C35.0395 11.6552 34.663 10.5174 34.0171 9.62835C33.5583 8.99694 33.0031 8.44168 32.3717 7.98294C31.4827 7.33704 30.3448 6.96054 28.5284 6.76375C26.6875 6.5643 24.3103 6.5625 21 6.5625C17.6897 6.5625 15.3125 6.5643 13.4716 6.76375C11.6552 6.96054 10.5174 7.33703 9.62835 7.98294C8.99694 8.44168 8.44168 8.99694 7.98294 9.62835C7.33703 10.5174 6.96054 11.6552 6.76375 13.4716C6.57319 15.2305 6.56305 17.479 6.56253 20.5631C6.98996 20.3573 7.44608 20.2277 7.92742 20.1323C8.6262 19.9939 9.48851 19.9089 10.5134 19.8079L10.636 19.7958C11.224 19.7378 11.7631 19.6846 12.2123 19.6876C12.6983 19.6909 13.2366 19.7568 13.753 20.0545C14.1723 20.2961 14.5265 20.6333 14.7909 21.0354C15.1118 21.5235 15.2206 22.0503 15.2681 22.5378C15.3126 22.9947 15.3125 23.5511 15.3125 24.1704V33.3339C15.3126 34.0627 15.3126 34.7119 15.2559 35.2383C15.1957 35.7966 15.0568 36.403 14.6416 36.9343C14.3917 37.2539 14.0813 37.5226 13.7261 37.7225C13.1262 38.0601 12.5001 38.0907 11.9446 38.0469C11.4285 38.0062 10.8082 37.8838 10.1252 37.7491L9.99526 37.7235C8.99496 37.5262 8.15053 37.3597 7.47048 37.1536C6.75096 36.9355 6.1011 36.6418 5.54033 36.125C5.17034 35.784 4.85506 35.3873 4.60448 34.9497C4.2278 34.2919 4.07538 33.5895 4.00478 32.8277C3.97734 32.5316 3.96109 32.2086 3.95146 31.8578C3.8107 31.9094 3.65863 31.9375 3.5 31.9375C2.77513 31.9375 2.1875 31.3499 2.1875 30.625V27.125C2.1875 26.4001 2.77513 25.8125 3.5 25.8125C3.6534 25.8125 3.80066 25.8388 3.9375 25.8872L3.9375 20.9208C3.93749 17.7069 3.93747 15.1876 4.15402 13.1888C4.37501 11.1491 4.83407 9.49648 5.85927 8.08541C6.47992 7.23116 7.23116 6.47992 8.08541 5.85927C9.49648 4.83407 11.1491 4.37501 13.1888 4.15402C15.1876 3.93747 17.7069 3.93749 20.9208 3.9375ZM6.5625 30.0883C6.5625 31.2285 6.56381 31.9944 6.61858 32.5855C6.67135 33.1549 6.76565 33.4413 6.88244 33.6453C7.00126 33.8528 7.14899 34.0378 7.31923 34.1947C7.48009 34.3429 7.71773 34.4856 8.23197 34.6415C8.77162 34.8051 9.48627 34.9475 10.5654 35.1603C11.3382 35.3127 11.8059 35.4028 12.1509 35.43C12.3368 35.4447 12.4216 35.4342 12.4499 35.4283C12.4935 35.402 12.5351 35.366 12.5713 35.3203C12.5822 35.299 12.619 35.2078 12.646 34.9571C12.6857 34.5885 12.6875 34.0831 12.6875 33.2681V24.2281C12.6875 23.5329 12.686 23.1064 12.6555 22.7922C12.6341 22.5729 12.6045 22.4934 12.5965 22.476C12.5556 22.4142 12.505 22.3668 12.4512 22.3341C12.4282 22.3279 12.356 22.3137 12.1944 22.3126C11.9007 22.3106 11.5017 22.3482 10.8334 22.4141C9.72968 22.5229 8.99574 22.5967 8.43746 22.7073C7.90246 22.8133 7.65436 22.9315 7.48761 23.0571C7.24289 23.2415 7.03383 23.4793 6.87623 23.7579C6.76341 23.9574 6.66987 24.2447 6.61767 24.8234C6.56374 25.4213 6.5625 26.1973 6.5625 27.3483V30.0883ZM35.4375 27.3483C35.4375 26.1973 35.4363 25.4213 35.3823 24.8234C35.3301 24.2447 35.2366 23.9574 35.1238 23.7579C34.9662 23.4793 34.7571 23.2415 34.5124 23.0571C34.3456 22.9315 34.0975 22.8133 33.5625 22.7073C33.0043 22.5967 32.2703 22.5229 31.1666 22.4141C30.4983 22.3482 30.0993 22.3106 29.8056 22.3126C29.644 22.3137 29.5718 22.3279 29.5488 22.3341C29.495 22.3669 29.4444 22.4142 29.4035 22.476C29.3955 22.4934 29.3659 22.5729 29.3445 22.7922C29.314 23.1064 29.3125 23.5329 29.3125 24.2281V33.2681C29.3125 34.0831 29.3143 34.5885 29.354 34.9571C29.381 35.2078 29.4178 35.2991 29.4287 35.3203C29.4649 35.366 29.5065 35.402 29.5501 35.4283C29.5784 35.4342 29.6632 35.4447 29.8491 35.43C30.1941 35.4028 30.6618 35.3127 31.4346 35.1603C32.5137 34.9475 33.2284 34.8051 33.768 34.6415C34.2823 34.4856 34.5199 34.3429 34.6808 34.1947C34.851 34.0378 34.9987 33.8528 35.1176 33.6453C35.2343 33.4413 35.3287 33.1549 35.3814 32.5855C35.4362 31.9944 35.4375 31.2285 35.4375 30.0883V27.3483Z" fill="#040085"/>
</svg>
