<svg width="42" height="42" viewBox="0 0 42 42" fill="none" xmlns="http://www.w3.org/2000/svg">
<path fill-rule="evenodd" clip-rule="evenodd" d="M13.904 2.1875H28.096C30.4893 2.18746 32.4184 2.18744 33.9356 2.39142C35.5108 2.6032 36.837 3.05626 37.8904 4.10961C38.9437 5.16297 39.3968 6.48925 39.6086 8.06444C39.8126 9.58163 39.8125 11.5107 39.8125 13.904V21.096C39.8125 23.4893 39.8126 25.4184 39.6086 26.9356C39.3968 28.5108 38.9437 29.837 37.8904 30.8904C37.019 31.7617 35.957 32.2255 34.7132 32.4788C33.5054 32.7247 32.0483 32.7866 30.3233 32.805L30.3135 32.8051L29.9207 32.8062C29.7515 33.3386 29.4761 33.8449 29.0946 34.2927C28.8652 34.5618 28.7266 34.8965 28.6984 35.249C28.5302 37.3566 26.8566 39.0302 24.749 39.1984C24.3965 39.2266 24.0618 39.3652 23.7927 39.5946C22.1834 40.9659 19.8166 40.9659 18.2073 39.5946C17.9382 39.3652 17.6035 39.2266 17.251 39.1984C15.1434 39.0302 13.4698 37.3566 13.3016 35.249C13.2734 34.8965 13.1348 34.5618 12.9054 34.2927C12.5244 33.8456 12.2493 33.34 12.08 32.8084C10.2594 32.7961 8.73548 32.7468 7.48362 32.5168C6.15712 32.2732 5.02824 31.809 4.10961 30.8904C3.05626 29.837 2.6032 28.5108 2.39142 26.9356C2.18744 25.4184 2.18746 23.4893 2.1875 21.096V13.904C2.18746 11.5107 2.18744 9.58163 2.39142 8.06444C2.6032 6.48925 3.05626 5.16297 4.10961 4.10961C5.16297 3.05626 6.48925 2.6032 8.06444 2.39142C9.58163 2.18744 11.5107 2.18746 13.904 2.1875ZM12.0826 30.1834C12.2521 29.6548 12.5264 29.1521 12.9054 28.7073C13.1348 28.4382 13.2734 28.1035 13.3016 27.751C13.4698 25.6434 15.1434 23.9698 17.251 23.8016C17.6035 23.7734 17.9382 23.6348 18.2073 23.4054C19.8166 22.0341 22.1834 22.0341 23.7927 23.4054C24.0618 23.6348 24.3965 23.7734 24.749 23.8016C26.8566 23.9698 28.5302 25.6434 28.6984 27.751C28.7266 28.1035 28.8652 28.4382 29.0946 28.7073C29.4731 29.1515 29.7472 29.6535 29.9167 30.1812L30.3003 30.1801C32.0245 30.1617 33.2539 30.097 34.1894 29.9066C35.0898 29.7232 35.6283 29.4401 36.0342 29.0342C36.5186 28.5499 36.8344 27.8699 37.007 26.5858C37.1847 25.2639 37.1875 23.512 37.1875 21V14C37.1875 11.488 37.1847 9.73608 37.007 8.41421C36.8344 7.13011 36.5186 6.4501 36.0342 5.96577C35.5499 5.48143 34.8699 5.16565 33.5858 4.99301C32.2639 4.81529 30.512 4.8125 28 4.8125H14C11.488 4.8125 9.73608 4.81529 8.41421 4.99301C7.13011 5.16565 6.4501 5.48143 5.96577 5.96577C5.48143 6.45011 5.16565 7.13011 4.99301 8.41421C4.81529 9.73608 4.8125 11.488 4.8125 14V21C4.8125 23.512 4.81529 25.2639 4.99301 26.5858C5.16565 27.8699 5.48143 28.5499 5.96577 29.0342C6.39181 29.4603 6.96594 29.7528 7.95786 29.935C8.95568 30.1183 10.2607 30.1706 12.0826 30.1834ZM14.4375 10.5C14.4375 9.77513 15.0251 9.1875 15.75 9.1875H26.25C26.9749 9.1875 27.5625 9.77513 27.5625 10.5C27.5625 11.2249 26.9749 11.8125 26.25 11.8125H15.75C15.0251 11.8125 14.4375 11.2249 14.4375 10.5ZM10.9375 16.625C10.9375 15.9001 11.5251 15.3125 12.25 15.3125H29.75C30.4749 15.3125 31.0625 15.9001 31.0625 16.625C31.0625 17.3499 30.4749 17.9375 29.75 17.9375H12.25C11.5251 17.9375 10.9375 17.3499 10.9375 16.625ZM22.09 25.4034C21.4619 24.8681 20.5381 24.8681 19.91 25.4034C19.2204 25.991 18.363 26.3462 17.4598 26.4183C16.6372 26.4839 15.9839 27.1372 15.9183 27.9598C15.8462 28.863 15.491 29.7204 14.9034 30.41C14.3681 31.0381 14.3681 31.9619 14.9034 32.59C15.491 33.2796 15.8462 34.137 15.9183 35.0402C15.9839 35.8628 16.6372 36.5161 17.4598 36.5817C18.363 36.6538 19.2204 37.009 19.91 37.5966C20.5381 38.1319 21.4619 38.1319 22.09 37.5966C22.7796 37.009 23.637 36.6538 24.5402 36.5817C25.3628 36.5161 26.0161 35.8628 26.0817 35.0402C26.1538 34.137 26.509 33.2796 27.0966 32.59C27.6319 31.9619 27.6319 31.0381 27.0966 30.41C26.509 29.7204 26.1538 28.863 26.0817 27.9598C26.0161 27.1372 25.3628 26.4839 24.5402 26.4183C23.637 26.3462 22.7796 25.991 22.09 25.4034ZM22.7295 28.7905C23.2594 28.2959 24.0899 28.3245 24.5845 28.8545C25.0791 29.3844 25.0505 30.2149 24.5205 30.7095L20.7705 34.2095C20.2663 34.6802 19.4837 34.6802 18.9795 34.2095L17.4795 32.8095C16.9495 32.3149 16.9209 31.4844 17.4155 30.9545C17.9101 30.4245 18.7406 30.3959 19.2705 30.8905L19.875 31.4547L22.7295 28.7905Z" fill="#040085"/>
</svg>
