<svg width="42" height="42" viewBox="0 0 42 42" fill="none" xmlns="http://www.w3.org/2000/svg">
<path d="M26.354 18.3741C26.8368 17.8334 26.7899 17.0037 26.2491 16.521C25.7084 16.0382 24.8787 16.0851 24.396 16.6259L19.125 22.5293L17.604 20.8259C17.1213 20.2851 16.2916 20.2382 15.7509 20.721C15.2101 21.2037 15.1632 22.0334 15.646 22.5741L18.146 25.3741C18.395 25.653 18.7511 25.8125 19.125 25.8125C19.4989 25.8125 19.855 25.653 20.104 25.3741L26.354 18.3741Z" fill="#040085"/>
<path fill-rule="evenodd" clip-rule="evenodd" d="M21 2.1875C19.3593 2.1875 17.7928 2.72402 15.2659 3.58945L13.9929 4.02524C11.4006 4.9126 9.39996 5.59742 7.9678 6.17922C7.24637 6.4723 6.62614 6.75617 6.12672 7.04621C5.6461 7.32533 5.16394 7.67347 4.83636 8.1402C4.51256 8.60153 4.34513 9.16868 4.23992 9.71463C4.13055 10.2822 4.06459 10.9631 4.02202 11.7449C3.9375 13.2971 3.9375 15.4236 3.9375 18.1819V20.9849C3.9375 31.6617 12.0015 36.7807 16.7971 38.8755L16.8445 38.8962C17.4391 39.156 17.9981 39.4003 18.6403 39.5647C19.3184 39.7383 20.0388 39.8125 21 39.8125C21.9612 39.8125 22.6816 39.7383 23.3597 39.5647C24.0019 39.4003 24.5608 39.1561 25.1554 38.8962L25.2029 38.8755C29.9985 36.7807 38.0625 31.6617 38.0625 20.9849V18.1822C38.0625 15.4238 38.0625 13.2972 37.978 11.7449C37.9354 10.9631 37.8695 10.2822 37.7601 9.71463C37.6549 9.16868 37.4874 8.60153 37.1636 8.1402C36.8361 7.67347 36.3539 7.32533 35.8733 7.04621C35.3739 6.75617 34.7536 6.4723 34.0322 6.17923C32.6 5.59742 30.5994 4.91259 28.0071 4.02523L26.7341 3.58946C24.2072 2.72402 22.6407 2.1875 21 2.1875ZM15.8911 6.15002C18.7165 5.18286 19.849 4.8125 21 4.8125C22.151 4.8125 23.2835 5.18286 26.1089 6.15002L27.1113 6.49315C29.7584 7.39924 31.6888 8.06058 33.0442 8.6112C33.7207 8.88604 34.2109 9.11636 34.555 9.31618C34.7249 9.41483 34.8419 9.49623 34.9201 9.55977C34.9863 9.6136 35.0116 9.6441 35.0152 9.64859C35.0186 9.65404 35.0404 9.69039 35.071 9.77644C35.106 9.87463 35.1447 10.0154 35.1825 10.2114C35.2589 10.608 35.3168 11.1528 35.3569 11.8876C35.437 13.3597 35.4375 15.4146 35.4375 18.2291V20.9849C35.4375 30.0413 28.6652 34.4986 24.1521 36.47C23.502 36.754 23.1266 36.9147 22.7087 37.0217C22.3096 37.1239 21.8225 37.1875 21 37.1875C20.1775 37.1875 19.6904 37.1239 19.2913 37.0217C18.8734 36.9147 18.498 36.754 17.8479 36.47C13.3348 34.4985 6.5625 30.0413 6.5625 20.9849V18.2291C6.5625 15.4146 6.56298 13.3597 6.64314 11.8876C6.68315 11.1528 6.74107 10.608 6.8175 10.2114C6.85526 10.0154 6.89403 9.87463 6.929 9.77644C6.95963 9.69046 6.98138 9.6541 6.98476 9.6486C6.98838 9.64415 7.01364 9.61365 7.07992 9.55977C7.15809 9.49623 7.27514 9.41483 7.445 9.31618C7.78908 9.11636 8.27925 8.88604 8.95579 8.6112C10.3112 8.06058 12.2416 7.39924 14.8887 6.49315L15.8911 6.15002Z" fill="#040085"/>
</svg>
