<svg width="42" height="42" viewBox="0 0 42 42" fill="none" xmlns="http://www.w3.org/2000/svg">
<path fill-rule="evenodd" clip-rule="evenodd" d="M21.0003 2.1875C13.51 2.1875 7.43781 8.25964 7.43781 15.75V16.9822C7.43781 18.2018 7.07681 19.3941 6.40029 20.4089L4.39023 23.424C2.05731 26.9234 3.8383 31.6799 7.89584 32.7865C9.21816 33.1471 10.5516 33.4522 11.8929 33.7016L11.8962 33.7106C13.2419 37.3014 16.8387 39.8125 21.0002 39.8125C25.1617 39.8125 28.7585 37.3014 30.1042 33.7106L30.1075 33.7017C31.4488 33.4522 32.7824 33.1471 34.1048 32.7865C38.1623 31.6799 39.9433 26.9234 37.6104 23.424L35.6003 20.4089C34.9238 19.3941 34.5628 18.2018 34.5628 16.9822V15.75C34.5628 8.25964 28.4907 2.1875 21.0003 2.1875ZM26.909 34.1897C22.9839 34.6587 19.0165 34.6587 15.0914 34.1897C16.3355 35.9773 18.4995 37.1875 21.0002 37.1875C23.5009 37.1875 25.6649 35.9774 26.909 34.1897ZM10.0628 15.75C10.0628 9.70939 14.9597 4.8125 21.0003 4.8125C27.0409 4.8125 31.9378 9.70939 31.9378 15.75V16.9822C31.9378 18.72 32.4522 20.419 33.4162 21.865L35.4263 24.8801C36.7653 26.8887 35.7431 29.6188 33.4141 30.254C25.2867 32.4706 16.714 32.4706 8.58652 30.254C6.25757 29.6188 5.23531 26.8886 6.57436 24.8801L8.58442 21.865C9.54841 20.419 10.0628 18.72 10.0628 16.9822V15.75Z" fill="#040085"/>
</svg>
