<svg width="43" height="43" viewBox="0 0 43 43" fill="none" xmlns="http://www.w3.org/2000/svg">
<rect x="0.5" y="0.5" width="42" height="42" rx="9.5" stroke="#8A0900"/>
<path d="M13.6316 14H29.3684C30.3316 14 31.2553 14.3371 31.9363 14.9373C32.6174 15.5374 33 16.3513 33 17.2V26.8C33 27.6487 32.6174 28.4626 31.9363 29.0627C31.2553 29.6629 30.3316 30 29.3684 30H13.6316C12.6684 30 11.7447 29.6629 11.0637 29.0627C10.3826 28.4626 10 27.6487 10 26.8V17.2C10 16.3513 10.3826 15.5374 11.0637 14.9373C11.7447 14.3371 12.6684 14 13.6316 14ZM13.6316 15.0667C13.0263 15.0667 12.4937 15.248 12.0821 15.568L21.5 20.9333L30.9179 15.568C30.5063 15.248 29.9737 15.0667 29.3684 15.0667H13.6316ZM21.5 22.224L11.3679 16.432C11.2711 16.6667 11.2105 16.9333 11.2105 17.2V26.8C11.2105 27.3658 11.4656 27.9084 11.9196 28.3085C12.3737 28.7086 12.9895 28.9333 13.6316 28.9333H29.3684C30.0105 28.9333 30.6263 28.7086 31.0804 28.3085C31.5344 27.9084 31.7895 27.3658 31.7895 26.8V17.2C31.7895 16.9333 31.7289 16.6667 31.6321 16.432L21.5 22.224Z" fill="#8A0900"/>
</svg>
