<svg width="43" height="43" viewBox="0 0 43 43" fill="none" xmlns="http://www.w3.org/2000/svg">
<rect x="0.5" y="0.5" width="42" height="42" rx="9.5" stroke="#00841F"/>
<path d="M20.1316 18.4756L20.1185 18.4889L20.1075 18.5039C20.0686 18.5573 19.9364 18.7583 19.92 19.0922C19.8986 19.5297 20.0664 20.3935 21.3368 21.6639C22.6068 22.9339 23.4704 23.102 23.9081 23.0807C24.2422 23.0645 24.4434 22.9322 24.4968 22.8932L24.5119 22.8822L24.5251 22.8691C25.9817 21.4302 28.1903 21.0238 29.9269 21.993L31.4946 22.8679C34.1473 24.3484 34.344 27.9652 32.1727 30.1365C30.9817 31.3275 29.4274 32.3547 27.6249 32.423C24.8772 32.5272 20.291 31.8209 15.7354 27.2653C11.1798 22.7097 10.4735 18.1235 10.5777 15.3759C10.646 13.5733 11.6733 12.019 12.8642 10.828C15.0355 8.65677 18.6524 8.85341 20.1328 11.5061L21.0077 13.0738C21.9769 14.8105 21.5705 17.0191 20.1316 18.4756ZM25.58 23.9666L25.5798 23.9668C25.5796 23.967 25.5795 23.9672 25.5793 23.9673C25.5057 24.0407 24.9603 24.5534 23.982 24.601C22.9823 24.6496 21.7249 24.2045 20.2605 22.7402C18.7957 21.2753 18.3508 20.0176 18.3998 19.0178C18.4478 18.0371 18.9631 17.4918 19.0341 17.4208C19.0341 17.4208 19.0341 17.4208 19.0341 17.4208L19.0341 17.4207C20.066 16.3888 20.2831 14.8987 19.6786 13.8155L18.8037 12.2479C17.9035 10.6348 15.5307 10.3141 13.9405 11.9043C12.8746 12.9702 12.1462 14.1804 12.0987 15.4335C12.0078 17.8305 12.6035 21.9809 16.8117 26.189C21.0198 30.3972 25.1702 30.9929 27.5672 30.9021C28.8204 30.8546 30.0305 30.1261 31.0964 29.0602C32.6866 27.4701 32.3659 25.0972 30.7529 24.197L29.1852 23.3221C28.102 22.7176 26.612 22.9347 25.58 23.9666Z" fill="#1A9035" stroke="#1A9035" stroke-width="0.5" stroke-linecap="round"/>
</svg>
