<svg width="43" height="43" viewBox="0 0 43 43" fill="none" xmlns="http://www.w3.org/2000/svg">
<rect x="0.5" y="0.5" width="42" height="42" rx="9.5" stroke="#3299FF"/>
<path fill-rule="evenodd" clip-rule="evenodd" d="M29.1242 12.5791C28.1316 12.7557 26.79 13.2008 24.8932 13.833L15.562 16.9433C14.5013 17.2969 13.7749 17.5405 13.2679 17.784C12.7646 18.0257 12.6307 18.1983 12.5791 18.3229C12.5356 18.4279 12.5093 18.5392 12.5013 18.6526C12.4917 18.7871 12.5343 19.0014 12.8763 19.4426C13.2209 19.8871 13.7616 20.4298 14.5522 21.2204L14.8349 21.503C14.8484 21.5165 14.8617 21.5299 14.875 21.5431C15.0906 21.7585 15.2662 21.9338 15.4033 22.1358C15.6719 22.5313 15.8243 22.994 15.8434 23.4717C15.8531 23.7156 15.8161 23.961 15.7707 24.2624C15.768 24.2808 15.7651 24.2995 15.7623 24.3184C15.6631 24.9795 15.594 25.4421 15.5619 25.8029C15.5301 26.1616 15.5416 26.3586 15.5733 26.4964C15.5956 26.5933 15.6249 26.6875 15.6608 26.7783L29.9394 12.4996C29.7253 12.4961 29.4592 12.5195 29.1242 12.5791ZM31.7925 11.7071C32.5579 12.4725 32.5969 13.5164 32.3974 14.6381C32.1992 15.752 31.7171 17.1983 31.111 19.0164L27.9428 28.5205C27.6189 29.4923 27.3536 30.2883 27.073 30.8772C26.7863 31.4789 26.4174 32.0129 25.8024 32.2835C25.5162 32.4095 25.2093 32.4819 24.8969 32.4973C24.2258 32.5302 23.6571 32.2176 23.1315 31.8076C22.6172 31.4064 22.0238 30.8131 21.2995 30.0887L21.0121 29.8013C20.728 29.5172 20.6554 29.4494 20.5836 29.4013C20.4272 29.2965 20.2457 29.2353 20.0577 29.2239C19.9714 29.2187 19.8727 29.2288 19.4745 29.2828L19.3791 29.2957C18.7463 29.3816 18.2377 29.4507 17.8258 29.4814C17.4068 29.5127 17.027 29.5102 16.6644 29.4214C15.3924 29.1103 14.4046 28.1085 14.1114 26.8323C14.0278 26.4684 14.0306 26.0887 14.0678 25.6702C14.1043 25.2588 14.1805 24.7513 14.2753 24.1198L14.2789 24.0958C14.3367 23.7107 14.3479 23.615 14.3446 23.5315C14.3367 23.3338 14.2736 23.1422 14.1624 22.9785C14.1154 22.9093 14.0496 22.8391 13.7742 22.5637L13.4543 22.2438C12.7102 21.4997 12.1006 20.8902 11.6909 20.3617C11.2718 19.8211 10.9559 19.2354 11.0051 18.5459C11.0246 18.272 11.0881 18.0029 11.1931 17.7492C11.4575 17.1104 12.002 16.7279 12.6186 16.4318C13.2215 16.1423 14.0393 15.8697 15.0377 15.537L24.4831 12.3886C26.3013 11.7826 27.7475 11.3005 28.8615 11.1023C29.9832 10.9028 31.0271 10.9418 31.7925 11.7071ZM31.0001 13.5603L16.7031 27.8573C16.8047 27.9015 16.9109 27.9375 17.0208 27.9644C17.1582 27.998 17.355 28.0124 17.7142 27.9856C18.0754 27.9586 18.539 27.896 19.2014 27.8061L19.2728 27.7964C19.2923 27.7938 19.3116 27.7911 19.3306 27.7885C19.6423 27.7461 19.8962 27.7115 20.1481 27.7267C20.6021 27.7541 21.0406 27.9019 21.4184 28.155C21.6281 28.2955 21.8091 28.4767 22.0314 28.6992C22.045 28.7129 22.0588 28.7267 22.0727 28.7406L22.324 28.9918C23.0934 29.7613 23.6216 30.2875 24.0541 30.6249C24.484 30.9602 24.6934 31.0055 24.8234 30.9991C24.9527 30.9927 25.0797 30.9627 25.1982 30.9106C25.3173 30.8582 25.4843 30.7241 25.7189 30.2319C25.9548 29.7368 26.1919 29.0299 26.536 27.9976L29.6666 18.6062C30.2989 16.7095 30.744 15.3679 30.9206 14.3753C30.9801 14.0404 31.0036 13.7744 31.0001 13.5603Z" fill="#3299FF"/>
</svg>
