<svg width="43" height="43" viewBox="0 0 43 43" fill="none" xmlns="http://www.w3.org/2000/svg">
<rect x="0.5" y="0.5" width="42" height="42" rx="9.5" stroke="#00DF04"/>
<path d="M28.3602 23.8483L24.84 22.0083C24.7707 21.9722 24.6935 21.9559 24.6163 21.9609C24.539 21.966 24.4644 21.9922 24.3999 22.037L22.5694 23.3135C21.5632 22.8091 20.7517 21.9608 20.2691 20.9089L21.4902 18.9953C21.5331 18.9279 21.5582 18.8499 21.5631 18.7692C21.5679 18.6884 21.5523 18.6077 21.5177 18.5353L19.7576 14.8553C19.7211 14.7785 19.6648 14.7139 19.595 14.6688C19.5252 14.6236 19.4447 14.5998 19.3627 14.6C18.3123 14.6 17.305 15.0362 16.5623 15.8126C15.8196 16.589 15.4024 17.642 15.4024 18.74C15.405 21.3012 16.3794 23.7566 18.1118 25.5676C19.8442 27.3786 22.1931 28.3973 24.6431 28.4C25.6934 28.4 26.7007 27.9638 27.4434 27.1874C28.1861 26.411 28.6034 25.358 28.6034 24.26C28.6034 24.1745 28.5807 24.0908 28.5378 24.018C28.4948 23.9453 28.4333 23.8865 28.3602 23.8483ZM24.6431 27.48C22.4264 27.4776 20.3012 26.556 18.7338 24.9174C17.1664 23.2789 16.2848 21.0572 16.2824 18.74C16.2823 17.9341 16.5713 17.1574 17.0923 16.5634C17.6133 15.9694 18.3284 15.6012 19.0964 15.5315L20.6146 18.7066L19.4045 20.6087C19.3641 20.6715 19.3392 20.7437 19.3319 20.8189C19.3246 20.8941 19.3352 20.9701 19.3627 21.04C19.9473 22.493 21.053 23.6488 22.4429 24.26C22.5099 24.2891 22.5827 24.3004 22.6548 24.293C22.727 24.2856 22.7963 24.2596 22.8565 24.2175L24.6761 22.9524L27.7134 24.5394C27.6465 25.3423 27.294 26.0898 26.7255 26.6342C26.1571 27.1787 25.414 27.4804 24.6431 27.48ZM22.0029 10C20.0877 9.99963 18.2057 10.5219 16.5428 11.5152C14.88 12.5085 13.4941 13.9384 12.5221 15.6635C11.5501 17.3885 11.0258 19.3489 11.0009 21.3508C10.9761 23.3527 11.4516 25.3267 12.3804 27.0775L11.0713 31.1818C10.9938 31.425 10.9825 31.6859 11.0388 31.9354C11.0952 32.1849 11.2168 32.413 11.3902 32.5942C11.5636 32.7755 11.7818 32.9027 12.0204 32.9615C12.2591 33.0204 12.5087 33.0086 12.7413 32.9275L16.6675 31.559C18.1361 32.4098 19.7716 32.8977 21.4485 32.9856C23.1255 33.0734 24.7994 32.7589 26.3421 32.0659C27.8848 31.373 29.2552 30.3201 30.3485 28.9879C31.4418 27.6557 32.2288 26.0796 32.6494 24.3803C33.0699 22.681 33.1128 20.9036 32.7747 19.1843C32.4366 17.4651 31.7265 15.8495 30.6988 14.4614C29.6712 13.0733 28.3532 11.9496 26.8459 11.1763C25.3386 10.403 23.6819 10.0006 22.0029 10ZM22.0029 32.08C20.2234 32.0806 18.4753 31.5907 16.9348 30.6597C16.8678 30.6195 16.792 30.5981 16.7148 30.5976C16.6673 30.5978 16.6201 30.6059 16.5751 30.6218L12.463 32.0547C12.3854 32.0817 12.3022 32.0857 12.2227 32.066C12.1431 32.0464 12.0704 32.004 12.0126 31.9436C11.9548 31.8832 11.9142 31.8071 11.8955 31.724C11.8767 31.6408 11.8805 31.5539 11.9063 31.4728L13.277 27.1741C13.2968 27.1123 13.3038 27.0468 13.2975 26.982C13.2913 26.9172 13.2719 26.8545 13.2407 26.798C12.1249 24.7818 11.6768 22.437 11.9659 20.1273C12.255 17.8177 13.2651 15.6723 14.8396 14.0241C16.4141 12.3758 18.4649 11.3168 20.6739 11.0114C22.8829 10.7059 25.1266 11.1711 27.0569 12.3347C28.9871 13.4983 30.4961 15.2953 31.3498 17.4469C32.2034 19.5986 32.3539 21.9845 31.7779 24.2347C31.202 26.4849 29.9317 28.4735 28.1643 29.892C26.3969 31.3105 24.2311 32.0796 22.0029 32.08Z" fill="#00DF04"/>
</svg>
